<?xml version="1.0" encoding="UTF-8" standalone="no"?>
<svg xmlns="http://www.w3.org/2000/svg" version="1.2" baseProfile="tiny" viewBox="0.00 0.00 500.00 450.00">
<path fill="#fffffd" d="
  M 212.34 193.25
  A 1.80 1.78 -55.4 0 0 210.21 193.65
  Q 202.70 201.95 206.19 212.29
  Q 206.75 213.94 208.72 217.84
  Q 210.08 220.52 210.17 221.57
  C 210.64 226.90 203.39 228.39 201.78 223.04
  A 1.89 1.88 -46.9 0 1 201.75 222.05
  Q 202.79 217.59 201.25 213.84
  A 2.14 2.13 67.5 0 0 198.47 212.68
  C 195.87 213.77 193.93 217.96 192.55 219.90
  A 1.66 1.61 -80.0 0 1 191.68 220.53
  C 188.11 221.57 185.14 218.61 187.08 215.15
  Q 187.70 214.05 189.41 212.78
  C 193.23 209.94 199.57 204.87 199.71 200.66
  A 1.62 1.62 0.0 0 0 198.11 198.98
  Q 193.91 198.91 191.01 202.19
  C 188.68 204.82 186.88 207.18 183.76 205.08
  C 179.62 202.30 182.15 198.49 185.75 197.26
  Q 194.08 194.41 200.85 191.91
  Q 207.60 189.41 205.75 182.83
  Q 205.31 181.24 204.82 180.93
  A 3.80 3.35 -49.9 0 0 200.44 181.59
  Q 198.40 183.56 196.33 185.98
  A 3.77 3.77 0.0 0 1 190.80 186.20
  L 190.27 185.68
  A 3.07 3.07 0.0 0 1 190.56 181.09
  C 193.16 179.08 196.23 177.76 198.54 175.24
  C 201.96 171.52 205.95 164.62 205.03 159.22
  A 1.31 1.30 -89.0 0 0 204.01 158.16
  Q 200.35 157.42 197.10 159.56
  Q 186.51 166.54 183.58 179.06
  Q 182.58 183.30 182.41 187.12
  A 6.00 5.99 -21.4 0 1 180.70 191.03
  C 177.09 194.70 174.38 196.87 174.51 201.77
  C 174.54 203.20 174.99 205.50 173.97 207.87
  C 172.58 211.07 166.46 210.57 166.08 207.10
  Q 165.75 204.09 166.91 201.67
  Q 169.42 196.37 174.46 188.97
  Q 176.02 186.68 175.94 183.66
  A 0.96 0.96 0.0 0 0 174.67 182.78
  Q 165.38 185.94 161.02 194.29
  C 157.55 200.91 148.44 195.25 153.38 189.71
  A 3.00 2.91 -84.5 0 1 154.04 189.15
  Q 161.76 184.37 171.82 176.87
  C 175.16 174.38 184.86 167.34 181.99 162.94
  C 178.98 158.31 172.96 162.49 169.47 165.23
  Q 160.68 172.13 159.02 173.02
  Q 152.69 176.42 150.69 179.68
  Q 149.44 181.74 147.92 182.18
  C 145.36 182.92 142.63 182.15 142.54 179.03
  C 142.33 171.96 148.60 175.84 151.01 170.86
  A 2.51 2.22 32.1 0 0 150.16 167.98
  Q 148.66 166.86 145.97 166.04
  C 144.01 165.44 140.47 166.15 137.83 164.29
  Q 135.48 162.63 135.95 160.47
  C 136.75 156.87 140.32 156.14 143.37 157.91
  C 150.27 161.90 158.02 169.81 165.22 161.01
  A 1.53 1.52 40.8 0 0 165.06 158.91
  C 161.83 155.99 157.64 157.22 154.62 156.66
  C 149.22 155.68 149.14 149.15 153.46 146.76
  Q 154.31 146.29 157.05 146.70
  A 2.38 2.35 70.7 0 1 158.32 147.32
  Q 165.35 153.94 173.76 154.27
  Q 185.19 154.72 190.22 154.24
  Q 193.81 153.90 197.12 151.15
  C 200.23 148.57 200.66 144.60 197.31 141.96
  Q 192.49 138.14 184.99 138.47
  C 179.02 138.74 175.11 140.59 170.99 144.04
  C 168.88 145.81 166.84 146.86 164.73 144.98
  C 162.56 143.03 163.00 139.55 165.86 138.33
  C 167.38 137.69 169.02 137.98 170.51 137.29
  Q 172.68 136.28 171.87 134.60
  C 170.55 131.84 167.37 131.30 164.39 130.94
  A 4.06 3.98 -49.2 0 0 162.83 131.07
  Q 155.06 133.33 148.69 138.68
  C 146.46 140.55 144.79 143.17 142.95 145.19
  A 2.85 2.83 13.1 0 1 141.67 145.98
  Q 138.91 146.77 137.37 146.31
  C 132.90 144.97 131.72 139.52 135.17 136.18
  Q 136.35 135.04 139.36 134.89
  C 144.77 134.61 148.08 132.42 152.62 129.16
  C 153.94 128.22 153.91 126.37 152.54 125.48
  C 149.85 123.76 147.39 123.62 144.22 124.30
  C 141.49 124.88 138.19 125.57 136.34 124.01
  Q 134.50 122.44 135.21 120.55
  C 137.61 114.13 142.93 119.52 147.36 118.67
  A 1.93 1.93 0.0 0 0 148.91 116.54
  C 148.48 113.10 146.33 111.25 144.00 109.23
  C 141.10 106.72 140.15 103.51 144.05 101.09
  A 2.08 2.03 -62.7 0 1 144.98 100.78
  Q 148.17 100.54 149.30 103.84
  Q 152.06 111.88 156.79 119.17
  C 158.59 121.94 160.79 123.41 164.18 124.19
  Q 171.08 125.77 178.03 129.88
  Q 181.64 132.02 184.64 131.46
  C 186.22 131.16 187.45 129.68 186.66 128.02
  C 182.60 119.48 173.21 116.58 163.96 114.62
  C 160.94 113.97 158.45 110.00 161.23 107.48
  C 164.79 104.25 168.28 108.71 171.30 110.40
  Q 174.88 112.39 178.57 113.03
  A 2.90 2.80 13.6 0 0 181.80 111.13
  Q 182.42 109.20 181.72 106.47
  C 180.54 101.88 176.77 100.11 171.77 99.04
  Q 165.18 97.63 161.33 96.31
  C 158.97 95.51 155.99 95.66 153.55 94.87
  C 149.88 93.69 148.59 89.72 151.22 86.77
  A 2.29 2.29 0.0 0 1 152.03 86.19
  C 154.55 85.13 155.88 85.49 157.93 87.33
  C 161.52 90.55 163.94 92.84 168.44 91.92
  A 1.85 1.84 -11.3 0 0 169.88 89.77
  C 168.95 84.90 166.64 82.64 162.73 77.71
  A 2.73 2.72 30.9 0 1 162.18 75.55
  C 162.74 72.25 166.60 69.57 169.65 71.28
  C 171.90 72.55 172.53 74.33 172.56 77.02
  Q 172.72 89.05 182.73 97.40
  A 2.28 2.23 -47.0 0 0 185.73 97.26
  C 189.11 94.01 181.93 85.28 180.09 82.38
  A 3.28 3.27 -33.5 0 1 181.00 77.93
  L 181.26 77.76
  A 2.82 2.82 0.0 0 1 185.41 79.01
  L 187.45 83.80
  A 1.87 1.87 0.0 0 0 189.75 84.85
  C 191.01 84.43 192.91 83.10 194.51 83.58
  C 196.63 84.22 198.24 86.43 196.65 88.43
  C 192.01 94.24 190.16 101.82 189.54 109.48
  Q 188.65 120.31 195.45 128.60
  Q 196.89 130.35 199.58 131.68
  A 1.79 1.76 55.9 0 0 200.53 131.87
  C 202.65 131.70 203.77 130.37 204.08 128.14
  C 205.20 120.09 201.81 114.74 196.89 108.90
  A 1.72 1.71 -75.8 0 1 196.57 108.36
  Q 195.19 104.59 197.79 103.28
  A 1.91 1.91 0.0 0 1 198.66 103.07
  L 202.19 103.07
  A 2.80 2.80 0.0 0 0 204.89 101.02
  Q 208.61 87.64 198.71 78.91
  C 193.44 74.25 185.27 71.44 179.38 69.01
  A 2.18 2.09 -7.2 0 1 178.53 68.38
  C 175.34 64.47 178.08 59.53 183.13 60.55
  A 3.38 3.34 -11.3 0 1 185.25 61.95
  C 187.88 65.78 190.87 69.26 195.44 70.15
  A 2.41 2.40 -85.3 0 0 198.31 67.71
  C 198.19 63.86 196.22 61.28 193.68 56.97
  A 2.75 2.75 0.0 0 1 194.98 53.04
  L 196.23 52.51
  A 2.81 2.81 0.0 0 1 199.98 54.15
  C 200.95 56.82 200.44 59.55 203.51 61.76
  A 0.78 0.77 43.6 0 0 204.45 61.74
  C 207.25 59.47 208.10 55.31 208.05 51.91
  Q 208.04 50.98 208.63 49.94
  Q 210.88 46.00 214.50 49.05
  Q 216.17 50.45 215.72 52.33
  C 213.74 60.72 205.23 66.76 206.26 74.84
  Q 206.90 79.88 210.09 83.54
  A 1.72 1.71 -53.0 0 0 212.93 83.14
  C 214.17 80.54 213.88 78.68 213.95 74.51
  Q 213.96 73.46 215.54 72.06
  C 217.54 70.27 220.40 71.51 221.23 73.99
  A 1.98 1.91 41.6 0 1 221.30 74.92
  Q 220.56 79.34 220.18 80.15
  Q 215.07 90.96 211.78 98.53
  C 210.00 102.61 208.12 108.14 209.50 112.31
  A 2.02 2.02 0.0 0 0 212.15 113.55
  C 217.52 111.45 218.70 106.00 219.88 100.95
  C 221.02 96.05 223.39 91.95 226.12 87.44
  C 229.22 82.32 229.13 79.39 228.57 73.80
  A 3.77 3.67 -61.9 0 0 228.21 72.55
  Q 225.72 67.61 221.91 63.91
  C 220.06 62.11 218.50 58.61 221.75 57.35
  A 1.46 1.42 -51.1 0 1 222.51 57.26
  L 225.24 57.64
  A 2.30 2.30 0.0 0 0 227.85 55.46
  Q 228.00 52.19 226.29 48.48
  C 224.73 45.11 228.65 43.62 231.54 44.27
  A 2.36 2.35 5.7 0 1 233.39 46.53
  Q 233.47 51.02 232.97 54.01
  C 232.10 59.25 231.14 67.75 233.80 71.45
  A 2.83 2.59 59.9 0 0 237.05 72.47
  C 242.05 70.30 244.97 64.55 244.82 59.38
  Q 244.68 54.45 241.58 49.23
  Q 240.04 46.62 240.41 45.37
  C 241.47 41.85 245.53 40.69 248.05 43.54
  Q 248.97 44.58 248.78 47.76
  Q 248.62 50.51 248.91 52.81
  A 2.70 2.57 -88.7 0 0 251.01 55.12
  C 255.29 55.89 258.54 48.79 259.59 44.87
  Q 260.08 43.02 262.86 42.32
  C 267.68 41.11 270.87 46.11 268.88 50.31
  Q 268.21 51.72 265.44 52.81
  Q 258.59 55.49 254.17 62.45
  Q 253.33 63.77 253.11 64.85
  A 1.31 1.31 0.0 0 0 254.34 66.42
  C 258.76 66.57 260.83 62.80 264.28 62.52
  Q 268.41 62.18 268.42 66.39
  C 268.43 69.87 263.11 70.89 260.49 71.24
  Q 253.84 72.14 250.54 72.34
  A 6.44 6.44 0.0 0 0 247.87 73.11
  Q 240.04 77.34 236.87 82.40
  Q 230.41 92.73 229.36 94.63
  Q 227.63 97.76 228.69 101.22
  A 1.24 1.24 0.0 0 0 229.76 102.10
  Q 233.58 102.49 236.73 99.70
  Q 238.43 98.20 245.04 91.22
  A 7.56 7.27 -84.8 0 1 246.08 90.32
  Q 248.49 88.58 252.51 86.27
  C 256.27 84.11 257.43 81.61 259.03 77.39
  A 1.61 1.58 84.7 0 1 259.66 76.62
  C 261.64 75.35 263.09 76.30 263.77 78.36
  Q 264.33 80.04 264.50 80.40
  A 1.78 1.78 0.0 0 0 266.19 81.39
  C 279.76 80.65 276.03 69.53 273.84 60.96
  Q 272.84 57.06 275.56 55.60
  C 277.17 54.74 279.63 55.33 281.21 54.13
  C 283.06 52.73 283.35 51.47 285.02 48.82
  Q 287.89 44.26 291.39 47.53
  Q 293.83 49.80 292.35 52.56
  C 291.43 54.28 287.92 55.51 286.44 56.64
  Q 281.47 60.48 281.05 65.95
  Q 280.88 68.05 281.61 68.80
  A 2.78 2.38 -41.8 0 0 285.15 68.72
  Q 287.27 66.92 289.66 65.18
  A 2.35 2.34 -34.6 0 1 293.01 65.79
  L 293.79 66.98
  A 2.87 2.86 -34.3 0 1 293.05 70.88
  C 291.55 71.95 289.18 72.65 287.39 73.90
  Q 282.28 77.50 278.52 82.11
  A 1.32 1.31 -48.1 0 0 278.61 83.88
  L 280.75 86.02
  A 0.93 0.92 -59.2 0 1 280.98 86.94
  Q 279.81 90.83 275.66 89.64
  Q 271.89 88.56 270.85 88.07
  A 2.51 2.44 57.9 0 0 269.71 87.79
  L 263.55 87.75
  A 1.21 1.09 32.1 0 0 263.15 87.82
  Q 254.93 90.53 248.56 96.43
  A 2.05 2.04 41.7 0 0 248.75 99.59
  C 252.82 102.52 257.26 99.42 260.13 95.99
  C 263.75 91.64 267.67 95.36 267.25 99.85
  A 0.81 0.80 13.3 0 0 267.77 100.68
  C 270.67 101.74 275.55 99.25 277.92 97.69
  Q 285.66 92.58 290.26 85.20
  Q 292.94 80.91 293.66 80.17
  C 298.48 75.23 300.99 70.84 300.93 64.00
  Q 300.86 55.24 300.86 55.17
  A 3.02 3.02 0.0 0 1 302.09 52.70
  Q 305.20 50.41 307.90 53.15
  C 309.74 55.03 307.51 59.31 306.67 60.99
  A 1.15 1.13 58.6 0 0 306.55 61.50
  L 306.55 65.53
  A 1.52 1.52 0.0 0 0 308.42 67.01
  Q 312.20 66.11 313.85 63.59
  Q 314.96 61.89 315.84 61.07
  A 1.13 1.10 -59.9 0 1 316.83 60.79
  Q 319.90 61.45 321.13 64.50
  A 1.30 1.28 -42.3 0 1 321.07 65.60
  Q 319.88 67.81 318.78 68.33
  Q 311.78 71.59 310.57 72.31
  Q 301.74 77.64 296.50 86.49
  Q 295.31 88.50 295.93 89.61
  C 297.59 92.56 303.34 89.78 305.33 88.30
  Q 310.94 84.11 319.14 78.14
  Q 322.68 75.57 324.40 72.15
  C 326.28 68.41 328.29 64.02 332.82 65.78
  C 336.87 67.35 337.62 72.07 334.22 75.08
  A 2.60 2.45 -75.0 0 1 333.49 75.53
  C 329.46 77.16 325.82 78.61 323.41 82.15
  A 2.85 2.51 40.2 0 0 323.91 85.55
  C 328.22 89.85 333.99 87.50 337.18 83.05
  Q 339.08 80.40 341.60 77.95
  A 2.49 2.49 0.0 0 1 345.23 78.12
  L 345.79 78.78
  A 3.52 3.51 -41.8 0 1 345.51 83.64
  Q 345.05 84.07 342.23 85.44
  Q 341.13 85.98 339.70 87.78
  A 0.72 0.72 0.0 0 0 339.78 88.77
  C 342.78 91.43 347.62 90.97 351.12 90.16
  C 353.46 89.62 356.77 91.51 357.31 94.07
  C 357.83 96.56 354.95 99.35 352.56 99.45
  A 2.29 2.26 55.3 0 1 351.56 99.26
  C 345.34 96.50 342.31 94.90 336.49 95.68
  A 0.78 0.78 0.0 0 0 335.82 96.36
  C 335.46 99.71 338.82 101.24 341.69 103.14
  A 2.44 2.43 24.2 0 1 342.71 105.81
  Q 342.04 108.34 339.53 109.07
  A 1.55 1.50 47.6 0 1 338.54 109.01
  Q 336.15 108.03 334.64 106.12
  C 331.14 101.69 327.02 95.31 322.16 91.56
  Q 317.73 88.15 312.51 90.28
  C 307.27 92.42 309.18 96.69 313.57 97.70
  Q 316.93 98.48 320.51 98.93
  A 3.21 2.76 87.0 0 1 322.94 101.48
  C 323.71 105.63 319.53 106.20 316.50 105.01
  Q 311.29 102.95 306.18 100.84
  C 303.06 99.55 299.90 98.85 296.00 97.76
  A 6.95 6.81 -39.0 0 0 293.59 97.53
  C 290.04 97.80 283.13 99.65 281.21 103.44
  A 1.94 1.93 35.3 0 0 281.61 105.73
  C 284.36 108.36 286.30 108.53 289.96 108.46
  Q 290.84 108.44 293.55 108.03
  Q 305.63 106.20 315.19 110.92
  Q 323.90 115.23 330.90 116.10
  Q 343.80 117.72 352.88 109.67
  C 355.34 107.49 356.53 105.11 360.21 105.38
  C 363.41 105.62 365.23 109.20 363.93 112.19
  C 362.88 114.62 360.51 115.10 357.68 115.13
  Q 353.37 115.17 350.30 118.05
  A 1.69 1.69 0.0 0 0 350.58 120.74
  Q 357.25 124.76 366.06 124.11
  C 370.10 123.81 371.37 127.95 369.41 130.75
  C 367.09 134.05 362.80 131.28 359.49 129.50
  A 2.00 1.95 -33.7 0 0 358.38 129.29
  Q 356.98 129.45 356.00 130.13
  A 1.73 1.73 0.0 0 0 355.50 132.43
  C 357.24 135.35 358.83 137.19 358.66 139.21
  Q 358.37 142.75 354.51 142.45
  C 352.55 142.30 351.95 141.03 351.67 139.17
  Q 351.05 134.99 350.61 133.42
  C 348.64 126.42 342.47 122.63 335.49 122.40
  Q 333.87 122.35 332.70 123.18
  A 2.26 1.80 62.8 0 0 332.20 125.67
  C 333.85 129.75 337.73 131.85 341.59 134.36
  Q 343.91 135.87 343.91 138.78
  C 343.89 146.60 332.76 146.79 332.18 139.95
  Q 332.12 139.21 331.92 138.14
  A 9.68 9.18 30.1 0 0 331.35 136.21
  C 329.30 131.34 321.81 118.43 315.50 118.13
  A 2.94 2.93 -77.6 0 0 312.64 119.97
  C 311.07 123.89 312.05 127.79 314.94 130.96
  Q 317.51 133.78 318.76 134.54
  C 322.41 136.74 327.68 139.03 324.67 142.89
  Q 322.72 145.37 319.91 144.51
  C 316.45 143.46 315.64 136.64 312.05 136.39
  Q 310.23 136.26 309.36 138.38
  C 308.22 141.14 309.92 145.04 310.50 147.30
  A 1.75 1.73 49.5 0 1 310.42 148.39
  C 309.22 151.34 304.46 152.22 302.58 149.43
  Q 301.70 148.12 302.48 145.15
  Q 302.86 143.70 303.48 139.50
  C 304.02 135.79 302.65 133.03 301.01 128.98
  A 1.49 1.49 0.0 0 1 301.18 127.55
  L 304.81 122.46
  A 1.62 1.61 -24.7 0 0 305.11 121.66
  C 305.57 116.32 300.30 113.60 295.90 114.85
  A 1.61 1.61 0.0 0 0 294.86 117.04
  Q 295.33 118.11 296.20 119.38
  A 2.88 2.87 -44.2 0 1 296.15 122.69
  C 294.23 125.34 291.97 123.90 290.16 121.77
  Q 283.77 114.26 275.58 110.96
  Q 273.77 110.23 267.45 108.31
  C 263.52 107.11 260.13 107.35 255.99 106.84
  Q 251.17 106.24 247.53 106.81
  C 243.70 107.40 240.38 107.12 236.35 108.31
  C 229.73 110.27 224.26 112.36 219.37 116.89
  Q 210.46 125.15 210.33 137.52
  C 210.18 152.44 219.58 162.74 233.82 165.81
  C 237.61 166.62 238.76 167.74 238.05 171.77
  A 1.40 1.37 78.4 0 1 237.45 172.70
  Q 235.28 174.12 233.48 173.52
  A 1.23 1.20 -19.0 0 1 233.27 173.42
  L 227.51 170.10
  A 1.56 1.54 -29.5 0 0 226.73 169.89
  Q 225.80 169.88 225.51 170.00
  A 2.41 2.06 66.0 0 0 224.60 173.07
  C 227.56 179.52 234.89 180.61 240.74 177.83
  C 243.50 176.52 245.20 174.48 248.27 171.59
  A 2.16 2.13 -74.1 0 1 249.12 171.11
  C 253.35 169.93 256.80 173.64 253.40 177.16
  A 0.89 0.81 -77.4 0 1 253.10 177.37
  L 247.80 179.62
  A 2.39 2.39 0.0 0 0 246.83 183.26
  C 248.52 185.49 253.17 187.56 256.60 189.36
  C 260.66 191.48 257.75 197.26 253.40 196.03
  A 2.48 2.45 75.5 0 1 252.28 195.36
  Q 247.92 190.91 245.98 189.52
  C 242.98 187.37 237.63 184.68 233.69 185.74
  A 1.87 1.67 -17.8 0 0 232.36 188.01
  C 233.88 191.95 239.62 196.62 242.63 198.38
  Q 243.64 198.97 244.69 202.31
  A 2.04 1.94 43.5 0 1 244.74 203.29
  C 243.62 208.61 236.81 210.12 234.57 204.64
  Q 234.27 203.90 232.88 199.27
  A 7.66 7.51 20.1 0 0 231.91 197.23
  C 229.29 193.35 224.56 187.65 221.63 181.76
  C 219.48 177.44 218.56 172.56 217.08 168.20
  Q 216.29 165.86 213.83 164.16
  A 1.87 1.86 -56.5 0 0 211.19 164.70
  L 210.05 166.53
  A 1.71 1.70 66.6 0 0 209.83 167.09
  C 208.26 174.90 211.80 181.53 216.05 187.23
  C 218.89 191.05 222.06 194.33 224.17 198.30
  Q 227.57 204.72 228.87 210.89
  C 229.96 216.08 234.10 219.51 238.01 223.09
  Q 241.62 226.39 237.98 229.21
  Q 236.39 230.44 234.27 229.51
  Q 233.33 229.10 232.09 226.25
  Q 230.92 223.57 229.08 222.29
  A 1.87 1.87 0.0 0 0 226.19 223.36
  L 225.05 227.92
  A 3.01 3.01 0.0 0 1 220.92 229.95
  L 220.65 229.83
  A 3.26 3.26 0.0 0 1 218.94 225.75
  C 219.79 223.39 222.06 220.43 222.71 217.67
  Q 223.65 213.72 222.45 209.84
  A 1.36 1.35 -35.9 0 0 220.05 209.46
  L 218.10 212.19
  A 1.82 1.80 -81.8 0 1 217.24 212.84
  Q 214.85 213.68 213.54 212.46
  A 2.99 2.84 -47.9 0 1 213.44 208.40
  C 215.65 205.88 217.09 204.77 217.85 200.85
  A 2.06 2.04 39.9 0 0 217.74 199.68
  Q 215.92 195.05 212.34 193.25
  Z"
/>
<path fill="#fffffd" d="
  M 224.18 328.90
  Q 224.00 328.47 221.79 326.61
  A 1.86 1.51 36.8 0 1 221.25 324.45
  C 223.77 320.47 228.48 323.00 232.90 324.64
  Q 238.58 326.74 244.39 323.66
  Q 251.86 319.71 257.35 314.90
  A 2.04 2.03 -61.4 0 0 256.31 311.35
  L 254.87 311.14
  A 8.68 8.67 -58.2 0 0 248.68 312.60
  Q 247.03 313.75 242.37 317.57
  A 3.30 3.29 -48.9 0 1 238.57 317.84
  C 237.05 316.92 236.94 313.48 236.66 311.82
  C 235.87 307.22 226.21 313.80 224.51 314.83
  Q 213.35 321.65 207.59 333.85
  C 204.54 340.30 213.42 349.26 218.16 353.39
  Q 219.78 354.79 219.64 356.94
  Q 219.35 361.70 214.45 361.23
  C 212.63 361.06 211.55 360.15 211.05 358.38
  C 210.08 354.96 209.49 351.72 207.06 349.84
  A 2.15 1.69 42.5 0 0 204.64 349.65
  C 202.64 351.29 202.64 353.90 202.09 357.27
  C 201.33 361.98 192.47 358.70 195.44 353.93
  C 197.04 351.36 199.85 347.34 199.93 343.94
  A 2.28 2.27 -85.3 0 0 197.97 341.63
  C 193.45 341.02 188.79 346.62 186.18 350.07
  C 184.35 352.48 182.63 353.47 179.92 352.07
  Q 176.82 350.46 177.96 346.44
  A 1.77 1.76 -13.0 0 1 178.48 345.61
  Q 180.60 343.74 181.70 343.17
  C 190.89 338.45 196.73 335.88 202.86 329.63
  C 204.44 328.00 206.30 324.28 205.24 322.11
  A 2.72 2.40 -14.7 0 0 202.62 320.79
  C 198.71 321.19 194.36 325.39 191.11 327.69
  Q 189.67 328.70 184.36 330.56
  Q 180.81 331.81 176.89 334.55
  C 174.48 336.23 173.43 338.61 171.86 340.84
  C 170.55 342.71 167.43 344.30 165.09 343.30
  C 160.48 341.33 159.94 335.69 164.18 332.67
  A 2.38 2.37 -67.3 0 1 165.15 332.27
  C 168.32 331.69 173.31 331.07 175.07 328.13
  C 176.15 326.32 173.95 324.30 172.59 323.72
  C 166.72 321.22 160.06 322.03 154.36 325.25
  C 151.45 326.90 149.04 328.02 146.50 325.90
  C 141.55 321.79 146.05 314.02 151.95 316.00
  C 156.67 317.59 160.39 318.41 164.74 316.85
  A 1.85 1.83 69.3 0 0 165.82 314.43
  Q 165.33 313.21 164.17 312.12
  A 2.35 2.18 -10.3 0 0 163.48 311.68
  Q 161.64 310.89 160.36 310.38
  C 155.02 308.22 157.67 302.15 162.43 303.47
  Q 163.62 303.80 165.61 305.99
  Q 170.13 310.95 174.30 315.94
  C 177.65 319.97 185.56 325.58 190.57 320.59
  C 192.62 318.55 192.01 316.17 189.55 314.86
  Q 187.85 313.95 180.22 312.29
  A 3.14 3.14 0.0 0 1 177.96 308.08
  L 177.99 308.02
  A 3.57 3.56 -69.1 0 1 182.55 305.98
  Q 182.91 306.12 200.24 312.56
  Q 206.32 314.82 209.03 314.59
  C 212.28 314.31 219.24 312.26 221.05 309.04
  C 223.59 304.53 218.13 303.36 214.75 303.46
  Q 206.92 303.69 203.24 303.75
  C 194.86 303.88 188.84 301.59 179.62 298.67
  Q 173.63 296.76 166.44 296.14
  C 157.05 295.32 148.28 301.40 143.10 308.90
  Q 142.14 310.30 139.81 310.25
  Q 135.39 310.17 134.68 306.14
  C 133.99 302.29 135.58 300.13 139.61 299.61
  C 143.19 299.15 146.77 298.72 149.02 295.34
  A 1.75 1.75 0.0 0 0 148.28 292.77
  Q 141.61 289.76 134.71 291.29
  Q 131.49 292.01 130.83 291.84
  C 126.49 290.70 127.09 285.33 131.17 284.27
  A 1.89 1.84 45.8 0 1 132.19 284.30
  C 134.50 285.07 137.68 286.42 139.06 284.38
  Q 139.83 283.26 138.92 282.06
  Q 134.57 276.32 129.16 275.14
  C 126.56 274.58 123.88 271.32 125.73 268.73
  Q 126.94 267.04 128.49 266.80
  C 132.84 266.13 134.59 271.23 136.68 272.84
  Q 139.08 274.69 140.43 274.95
  A 2.19 2.19 0.0 0 0 142.95 273.39
  Q 143.67 270.80 143.61 268.05
  C 143.56 265.28 146.35 263.77 148.82 264.89
  C 152.33 266.49 149.63 271.68 148.42 274.04
  C 146.50 277.77 145.82 283.74 149.98 286.36
  Q 156.61 290.54 164.89 290.59
  A 1.52 1.52 0.0 0 0 166.42 289.09
  Q 166.48 285.41 162.93 283.56
  C 159.66 281.85 152.74 279.47 154.80 274.99
  Q 156.80 270.68 161.72 271.71
  A 3.42 3.39 -5.4 0 1 164.15 273.71
  L 166.02 278.12
  A 4.14 4.14 0.0 0 0 166.78 279.29
  Q 175.83 289.13 178.64 291.37
  Q 181.40 293.56 185.02 293.08
  A 0.54 0.54 0.0 0 0 185.47 292.68
  C 186.66 288.15 183.96 283.02 181.64 279.41
  C 178.66 274.78 172.85 271.29 168.39 268.86
  Q 165.38 267.23 165.87 263.54
  Q 166.17 261.34 168.20 260.94
  C 173.26 259.94 173.12 264.74 175.79 267.29
  Q 177.31 268.75 178.32 269.15
  A 1.90 1.90 0.0 0 0 180.89 267.68
  C 181.39 264.44 179.68 261.82 181.36 258.76
  A 1.36 1.36 0.0 0 1 182.24 258.09
  Q 186.09 257.19 187.05 260.97
  A 2.16 2.14 44.7 0 1 187.06 262.03
  Q 185.46 268.57 186.47 274.43
  A 2.32 2.32 0.0 0 0 189.59 276.20
  Q 192.76 274.97 193.36 270.90
  C 193.68 268.72 192.71 265.56 195.29 263.86
  Q 198.46 261.77 201.14 264.64
  C 203.84 267.54 200.34 271.56 197.78 275.01
  C 193.70 280.51 188.77 290.95 196.71 296.19
  Q 200.38 298.62 205.63 297.73
  A 2.34 1.98 78.9 0 0 207.15 295.00
  C 206.27 290.93 200.19 290.11 200.09 286.06
  C 199.99 282.63 203.73 281.14 206.41 282.49
  Q 207.62 283.10 209.18 285.98
  Q 211.12 289.55 214.67 292.59
  C 222.58 299.37 231.75 302.12 242.03 303.85
  Q 255.44 306.11 269.36 302.83
  C 282.68 299.70 294.37 292.25 296.93 277.75
  C 299.47 263.38 290.99 251.16 277.93 245.57
  Q 276.24 244.85 268.11 242.27
  C 261.17 240.08 266.35 233.03 271.99 236.32
  C 274.54 237.81 278.61 241.31 281.57 239.81
  A 0.97 0.96 -10.7 0 0 282.10 239.04
  C 282.68 232.83 273.08 229.22 268.26 228.59
  C 264.66 228.12 257.74 231.99 254.81 234.29
  C 251.50 236.89 247.17 238.32 245.43 233.48
  A 1.75 1.69 -46.9 0 1 245.41 232.34
  C 246.47 229.19 248.52 228.77 251.75 228.73
  C 254.35 228.71 255.96 227.84 257.67 226.21
  A 1.08 1.07 43.0 0 0 257.61 224.61
  C 254.91 222.35 250.98 221.09 247.70 220.61
  C 244.45 220.13 242.56 218.97 243.29 215.61
  Q 243.77 213.37 246.36 213.02
  C 248.79 212.70 250.66 214.76 252.72 216.04
  A 17.53 17.15 70.5 0 0 255.65 217.48
  Q 265.69 221.28 271.80 223.95
  Q 273.75 224.80 274.34 224.61
  C 276.76 223.84 276.21 221.00 274.84 219.34
  C 269.70 213.12 263.03 211.99 255.65 209.40
  A 3.16 2.97 73.3 0 1 254.75 208.88
  Q 251.26 205.95 254.71 201.96
  C 257.15 199.14 260.35 199.84 262.34 202.65
  C 264.08 205.11 266.66 207.60 269.54 208.19
  A 2.33 2.33 0.0 0 0 272.34 205.97
  Q 272.70 192.74 261.27 186.25
  Q 260.12 185.60 258.24 182.92
  A 1.35 1.35 0.0 0 1 258.13 181.55
  Q 258.94 179.86 260.27 179.27
  A 1.47 1.46 -37.9 0 1 261.74 179.45
  C 263.66 180.94 265.88 182.87 267.06 183.03
  A 1.54 1.53 -83.1 0 0 268.79 181.67
  Q 269.08 178.97 269.82 177.30
  C 270.83 175.04 275.35 175.10 275.31 178.27
  Q 275.29 180.20 274.41 183.06
  Q 272.83 188.16 275.41 192.45
  A 1.84 1.84 0.0 0 0 278.08 192.98
  C 281.60 190.40 281.94 186.46 282.47 182.37
  C 283.14 177.25 292.82 178.72 290.70 185.54
  Q 290.41 186.47 289.00 187.78
  Q 284.83 191.67 280.91 198.68
  Q 276.89 205.89 279.80 213.19
  Q 281.79 218.15 285.35 226.64
  C 287.67 232.18 288.99 239.68 292.29 245.20
  Q 292.99 246.37 295.01 247.24
  A 1.27 1.26 43.1 0 0 296.09 247.21
  C 299.34 245.56 298.78 240.27 297.89 237.33
  Q 297.42 235.80 295.16 227.80
  Q 294.67 226.09 295.83 220.55
  Q 296.72 216.25 293.94 211.38
  A 3.99 3.76 -86.8 0 0 293.03 210.30
  C 290.64 208.39 287.29 206.41 285.75 203.96
  A 2.84 2.28 -41.1 0 1 286.30 200.86
  Q 289.47 197.45 292.12 201.07
  C 293.22 202.58 296.57 207.07 298.54 207.13
  A 2.80 2.33 -82.2 0 0 300.97 204.91
  C 302.09 199.67 299.44 194.47 297.31 189.23
  C 294.86 183.23 302.75 181.36 304.41 186.19
  A 2.47 2.41 39.0 0 1 304.53 187.21
  Q 304.11 192.48 305.96 196.26
  A 1.95 1.95 0.0 0 0 308.88 196.96
  Q 311.16 195.24 312.46 192.44
  C 314.19 188.70 317.08 186.74 320.49 190.25
  C 325.40 195.32 316.81 198.30 313.59 200.72
  Q 306.28 206.22 302.76 215.36
  A 1.06 0.86 -39.1 0 0 302.68 215.74
  L 302.63 220.02
  A 1.30 1.29 -83.7 0 0 303.65 221.30
  C 305.33 221.67 306.94 220.54 308.89 219.46
  C 313.87 216.72 316.32 211.78 317.05 206.32
  A 1.49 1.45 69.7 0 1 317.38 205.58
  Q 318.86 203.79 320.53 203.94
  A 2.69 2.62 4.9 0 1 322.97 206.77
  Q 322.73 209.83 322.76 211.08
  A 1.84 1.83 11.7 0 0 323.83 212.70
  C 325.29 213.39 328.28 213.25 329.56 212.06
  Q 331.21 210.53 331.33 207.73
  C 331.41 206.01 329.80 203.31 330.21 201.40
  Q 330.70 199.16 332.72 198.49
  Q 337.38 196.95 338.79 201.16
  Q 339.18 202.35 337.94 206.72
  A 1.00 0.96 55.2 0 0 337.89 207.03
  L 337.78 210.38
  A 2.92 2.85 60.2 0 1 337.46 211.62
  Q 335.12 216.17 330.58 217.32
  C 320.77 219.81 307.68 221.75 304.70 233.79
  Q 304.47 234.72 305.20 238.68
  Q 306.36 244.92 303.07 251.99
  C 301.17 256.07 301.75 263.19 307.59 263.17
  A 2.20 2.14 28.5 0 0 308.73 262.85
  Q 312.27 260.69 312.98 259.30
  Q 320.18 245.31 315.42 231.20
  A 2.16 2.12 -43.5 0 1 315.47 229.69
  C 316.68 226.81 319.86 225.63 321.95 228.82
  A 1.73 1.72 29.4 0 1 322.22 229.78
  Q 322.08 234.18 322.24 235.49
  Q 322.35 236.29 322.43 236.43
  A 1.86 1.61 -37.6 0 0 325.08 236.58
  Q 327.07 234.81 328.43 233.86
  A 2.64 2.63 -29.1 0 1 332.38 234.98
  L 332.67 235.66
  A 2.61 2.61 0.0 0 1 331.86 238.74
  C 329.40 240.64 326.96 241.82 324.99 244.00
  Q 321.56 247.79 321.47 254.10
  A 1.98 1.98 0.0 0 0 324.14 255.99
  C 326.06 255.29 327.65 254.19 329.13 252.48
  C 334.70 246.08 342.18 239.00 337.93 230.56
  Q 337.75 230.21 335.48 226.53
  A 1.24 1.23 40.6 0 1 335.39 225.43
  C 336.46 222.81 338.14 222.43 341.12 221.48
  A 3.21 3.17 16.3 0 0 342.12 220.94
  Q 345.08 218.58 344.86 214.55
  Q 344.78 213.02 346.01 211.87
  Q 349.49 208.60 352.63 211.65
  A 2.41 2.36 15.8 0 1 353.28 212.79
  Q 353.72 214.63 353.28 216.73
  A 1.78 1.77 -16.5 0 1 352.80 217.61
  L 347.90 222.51
  A 4.12 3.51 -9.5 0 0 347.47 223.02
  Q 345.34 226.09 345.10 231.00
  Q 345.01 232.92 346.72 233.54
  A 1.31 1.30 42.3 0 0 347.68 233.50
  Q 352.05 231.52 353.04 230.28
  C 355.62 227.02 359.92 220.92 363.44 227.72
  A 2.90 2.77 -63.1 0 1 363.73 228.68
  C 364.27 233.65 357.85 234.00 354.75 235.70
  Q 345.54 240.77 338.76 249.87
  A 2.87 2.87 0.0 0 0 341.06 254.45
  L 343.50 254.45
  A 8.83 8.81 -70.7 0 0 350.39 251.13
  Q 353.58 247.10 358.80 244.04
  C 361.08 242.71 364.86 237.89 367.90 239.70
  C 372.32 242.32 370.92 248.41 365.92 248.72
  C 359.01 249.16 356.47 252.46 353.00 257.88
  A 2.56 2.49 89.2 0 1 352.32 258.60
  Q 349.65 260.51 345.99 260.11
  Q 340.85 259.55 335.42 259.61
  A 6.79 6.69 36.9 0 0 333.79 259.83
  C 330.11 260.79 318.26 265.86 317.67 270.48
  C 316.91 276.45 325.23 275.37 328.55 273.98
  Q 337.90 270.05 346.00 269.01
  Q 353.82 268.02 360.07 263.33
  A 7.54 7.36 0.7 0 0 361.31 262.15
  C 363.97 258.94 366.50 254.73 370.72 256.37
  C 373.56 257.48 375.67 261.25 374.56 264.47
  C 373.11 268.71 368.54 268.29 364.30 268.38
  A 3.67 3.61 37.3 0 0 363.59 268.47
  C 360.67 269.16 353.66 272.40 359.14 276.17
  Q 363.57 279.22 369.33 279.42
  C 371.41 279.49 372.82 280.51 373.49 282.45
  Q 375.20 287.40 370.74 289.58
  Q 366.54 291.63 363.74 287.83
  Q 360.99 284.10 359.19 282.73
  C 355.71 280.08 343.60 272.00 340.15 278.44
  A 1.38 1.37 -41.6 0 0 340.08 279.59
  Q 341.10 282.10 342.48 282.59
  C 347.04 284.22 354.15 288.73 347.71 293.68
  Q 344.31 296.28 340.67 293.49
  Q 339.74 292.78 338.47 289.48
  C 337.01 285.69 334.61 282.53 330.77 281.26
  Q 326.74 279.93 325.20 282.82
  A 1.88 1.82 54.0 0 0 325.02 284.08
  C 326.38 290.63 330.87 298.88 337.76 301.29
  Q 340.33 302.19 344.79 301.39
  Q 350.97 300.29 353.12 299.74
  Q 355.03 299.25 358.37 298.88
  C 361.29 298.57 366.05 295.47 368.72 298.98
  A 1.81 1.81 0.0 0 1 369.09 299.84
  Q 369.71 304.01 366.64 305.41
  A 2.31 2.24 -54.7 0 1 365.58 305.61
  C 361.65 305.45 358.60 303.29 354.35 304.98
  A 2.60 2.41 -13.8 0 0 352.70 307.48
  C 353.08 311.86 361.70 312.98 360.67 317.91
  Q 359.63 322.94 354.73 322.11
  C 352.12 321.68 351.28 317.17 350.87 315.91
  C 349.48 311.67 343.62 306.46 338.75 307.68
  A 1.27 1.26 -7.8 0 0 337.80 308.93
  Q 338.03 320.52 346.78 326.83
  C 353.70 331.81 344.74 340.55 340.45 334.02
  Q 340.13 333.53 339.31 330.19
  Q 338.65 327.50 336.75 325.56
  A 1.88 1.86 41.8 0 0 333.94 325.71
  Q 330.59 329.99 331.32 336.23
  C 331.54 338.14 333.98 342.50 332.87 344.56
  C 330.61 348.76 325.33 348.53 323.58 344.02
  Q 323.00 342.53 324.02 339.91
  Q 325.79 335.39 326.19 329.02
  C 326.34 326.59 329.51 322.46 330.36 320.06
  Q 332.08 315.19 332.10 313.97
  C 332.16 308.37 328.63 305.44 324.14 301.87
  Q 322.76 300.76 322.28 298.58
  Q 320.85 292.09 320.49 291.11
  C 318.86 286.56 313.03 274.60 306.55 278.56
  Q 303.97 280.14 304.54 283.46
  C 306.16 292.99 314.37 302.20 321.69 308.58
  Q 321.86 308.72 323.44 311.28
  C 326.22 315.77 319.43 321.53 315.68 316.26
  Q 314.69 314.87 314.60 313.20
  C 314.41 309.58 313.19 307.10 309.98 304.59
  A 1.13 1.13 0.0 0 0 308.86 304.42
  Q 306.42 305.35 306.42 307.29
  Q 306.43 309.09 306.60 316.55
  A 2.32 2.30 -28.2 0 1 306.17 317.95
  C 301.56 324.51 293.00 318.22 297.12 312.59
  C 300.70 307.70 303.44 302.40 301.40 296.38
  Q 300.93 295.01 299.60 294.25
  A 1.17 1.17 0.0 0 0 298.48 294.22
  Q 293.99 296.51 291.64 301.42
  C 287.25 310.59 286.31 318.59 292.91 327.09
  C 296.10 331.21 301.09 331.63 305.87 329.90
  C 307.76 329.21 309.75 326.30 312.28 325.77
  C 319.36 324.30 321.02 335.16 312.28 334.82
  C 309.15 334.69 304.39 334.75 306.16 339.54
  C 307.20 342.37 310.57 343.80 313.58 344.91
  C 315.94 345.78 317.38 349.40 316.55 351.85
  C 315.07 356.21 310.14 358.18 306.48 354.65
  C 304.71 352.95 304.51 350.16 303.81 347.62
  C 302.84 344.11 301.01 341.70 297.87 339.60
  Q 295.57 338.05 294.28 340.29
  A 1.94 1.90 62.0 0 0 294.02 341.18
  Q 293.81 346.89 294.30 348.71
  Q 295.10 351.66 296.64 355.92
  C 298.72 361.67 287.59 365.64 286.06 357.92
  C 285.49 355.05 287.53 352.35 287.90 349.19
  Q 289.17 338.62 286.34 329.21
  Q 285.74 327.22 284.26 326.26
  A 1.92 1.66 -53.7 0 0 281.93 326.79
  Q 279.68 329.55 280.03 332.75
  C 280.21 334.39 280.43 336.89 279.15 338.64
  C 276.28 342.58 270.76 340.68 269.60 336.41
  A 1.98 1.95 -38.8 0 1 269.77 334.95
  C 271.27 332.21 273.22 330.03 274.52 327.57
  C 277.39 322.12 281.30 316.77 280.38 311.14
  C 279.63 306.59 276.11 307.39 273.04 309.28
  C 264.98 314.24 263.05 321.79 262.69 330.90
  C 262.25 342.01 268.68 349.93 277.18 356.25
  C 279.22 357.77 280.69 360.06 279.17 362.43
  C 277.91 364.41 275.27 364.92 273.38 363.93
  Q 272.57 363.50 271.62 361.23
  C 270.97 359.70 268.45 355.03 266.61 354.47
  A 2.44 2.32 -80.5 0 0 263.63 356.72
  Q 263.59 357.53 263.59 363.65
  A 2.12 2.10 -27.6 0 1 263.20 364.87
  C 261.63 367.07 258.79 367.70 256.44 365.93
  C 252.06 362.64 258.36 356.56 259.38 353.14
  C 260.22 350.27 260.44 342.22 255.77 342.55
  C 252.76 342.76 249.17 349.47 248.30 352.10
  C 247.23 355.35 248.11 360.94 247.94 363.83
  A 2.41 2.40 -2.2 0 1 245.85 366.08
  Q 242.48 366.52 241.73 363.24
  A 1.79 1.77 47.2 0 1 241.76 362.35
  Q 242.53 359.88 242.16 357.87
  A 1.72 1.70 -12.9 0 0 240.01 356.54
  C 236.99 357.38 234.81 361.65 233.33 364.16
  A 1.80 1.76 -81.3 0 1 232.24 364.98
  C 230.16 365.50 227.63 365.18 226.78 362.98
  C 224.38 356.77 237.74 353.81 239.85 348.81
  A 1.17 1.17 0.0 0 0 238.78 347.19
  C 236.56 347.17 232.48 348.59 230.62 345.99
  C 228.57 343.13 231.61 340.09 234.59 341.00
  C 239.18 342.42 245.60 342.97 249.68 339.54
  C 253.27 336.52 256.88 331.84 255.84 326.88
  A 0.85 0.85 0.0 0 0 255.25 326.25
  Q 253.24 325.66 252.26 326.24
  Q 244.63 330.70 243.25 331.22
  Q 240.02 332.43 233.77 333.08
  Q 226.67 333.82 223.70 340.65
  C 222.47 343.48 219.07 344.58 216.68 341.89
  C 214.27 339.19 216.65 336.54 219.18 334.73
  Q 222.99 332.02 223.29 331.82
  A 2.40 2.39 62.0 0 0 224.18 328.90
  Z"
/>
</svg>
